<?xml version="1.0" encoding="UTF-8"?>
<svg width="300px" height="43px" viewBox="0 0 300 43" version="1.1" xmlns="http://www.w3.org/2000/svg" xmlns:xlink="http://www.w3.org/1999/xlink">
    <!-- Generator: Sketch 49.1 (51147) - http://www.bohemiancoding.com/sketch -->
    <title>Logo / Horizontal Color</title>
    <desc>Created with Sketch.</desc>
    <defs></defs>
    <g id="Logo-/-Horizontal-Color" stroke="none" stroke-width="1" fill="none" fill-rule="evenodd">
        <path d="M22.9670794,24.0781702 C22.9670794,22.2977872 22.2032619,20.7561915 20.7345213,19.5101064 C19.2666868,18.2054681 17.5623679,17.5531489 15.5064935,17.5531489 C13.33283,17.5531489 11.3956509,18.2054681 9.80912111,19.4506383 C8.22349743,20.6967234 7.34279674,22.2383191 7.16611296,24.0781702 L22.9670794,24.0781702 Z M0,27.2802979 C0,22.5356596 1.46874056,18.739766 4.34551495,15.8331489 C7.28299607,12.9265319 10.9842948,11.5029574 15.5064935,11.5029574 C19.794926,11.5029574 23.3186349,12.9265319 26.0214437,15.8331489 C28.782241,18.739766 30.1322863,22.2977872 30.1322863,26.5685106 C30.1322863,27.4577872 30.0742978,28.2885106 30.0144971,29.059766 L6.98942918,29.059766 C7.22410148,33.8044043 10.6898218,36.8885106 15.9169435,36.8885106 C18.9722138,36.8885106 21.6161281,35.7613617 23.9066747,33.4485106 L28.1353066,37.6002979 C24.7873754,41.159234 20.6747206,42.9377872 15.6831773,42.9377872 C11.0431894,42.9377872 7.22410148,41.5142128 4.34551495,38.7265319 C1.46874056,35.9388511 0,32.2024255 0,27.5172553 L0,27.2802979 Z" id="Fill-1" fill="#6FBE9A"></path>
        <path d="M55.4596799,33.8044043 C57.2219873,32.0844043 58.102688,29.8895745 58.102688,27.2802979 C58.102688,24.6701064 57.2219873,22.4761915 55.4596799,20.7561915 C53.756267,19.0352766 51.5835095,18.1469149 49.0573845,18.1469149 C46.5312594,18.1469149 44.4753851,19.0352766 42.7719722,20.7561915 C41.1274539,22.4761915 40.3047418,24.6701064 40.3047418,27.2802979 C40.3047418,29.8895745 41.1274539,32.0844043 42.7719722,33.8044043 C44.4753851,35.5234894 46.5312594,36.4136809 49.0573845,36.4136809 C51.5835095,36.4136809 53.756267,35.5234894 55.4596799,33.8044043 Z M57.5735427,16.6638723 L57.5735427,0.886531915 L64.6227726,0.886531915 L64.6227726,33.2106383 C64.6227726,35.7613617 65.2099064,36.7101064 66.7964361,36.7101064 C67.2068861,36.7101064 67.7360314,36.6515532 68.2651767,36.5920851 L68.2651767,42.3449362 C67.5013591,42.6413617 66.3261854,42.819766 64.7994564,42.819766 C63.0960435,42.819766 61.744186,42.5233404 60.6868016,41.8710213 C59.3947448,40.9808298 58.5729387,39.7942128 58.2784657,38.252617 C56.2234974,41.3961915 52.8166717,42.9377872 48.1168831,42.9377872 C43.9462398,42.9377872 40.422531,41.4556596 37.5439444,38.4301064 C34.7251586,35.4054681 33.3153126,31.7285106 33.3153126,27.2802979 C33.3153126,22.8320851 34.7251586,19.1551277 37.5439444,16.1890426 C40.422531,13.1644043 43.9462398,11.6813617 48.1168831,11.6813617 C52.8746602,11.6813617 56.4572637,13.8167234 57.5735427,16.6638723 Z" id="Fill-2" fill="#6FBE9A"></path>
        <path d="M92.4264573,24.0781702 C92.4264573,22.2977872 91.6626397,20.7561915 90.1938991,19.5101064 C88.7260646,18.2054681 87.0217457,17.5531489 84.9658713,17.5531489 C82.7931139,17.5531489 80.8550287,18.2054681 79.2684989,19.4506383 C77.6828753,20.6967234 76.8021746,22.2383191 76.6254908,24.0781702 L92.4264573,24.0781702 Z M69.4593778,27.2802979 C69.4593778,22.5356596 70.9281184,18.739766 73.8057989,15.8331489 C76.7423739,12.9265319 80.4436726,11.5029574 84.9658713,11.5029574 C89.2543038,11.5029574 92.7789188,12.9265319 95.4808215,15.8331489 C98.2416188,18.739766 99.5925702,22.2977872 99.5925702,26.5685106 C99.5925702,27.4577872 99.5336756,28.2885106 99.474781,29.059766 L76.4497131,29.059766 C76.6843854,33.8044043 80.1491996,36.8885106 85.3772274,36.8885106 C88.4315917,36.8885106 91.0755059,35.7613617 93.3660526,33.4485106 L97.5946844,37.6002979 C94.2476593,41.159234 90.1350045,42.9377872 85.1425551,42.9377872 C80.5025672,42.9377872 76.6843854,41.5142128 73.8057989,38.7265319 C70.9281184,35.9388511 69.4593778,32.2024255 69.4593778,27.5172553 L69.4593778,27.2802979 Z" id="Fill-3" fill="#6FBE9A"></path>
        <path d="M134.000604,36.2956596 C132.414074,36.2956596 132.002718,35.4649362 132.002718,33.1520851 L132.002718,23.7213617 C132.002718,16.3079787 127.949864,11.7408298 120.960435,11.7408298 C116.797946,11.7408298 113.514346,13.6904681 112.099064,16.5870213 C111.847176,15.0371915 111.20749,13.6950426 109.669888,12.7115319 C108.622471,12.0418298 107.25974,11.7627872 105.557233,11.7627872 C104.029598,11.7627872 102.20749,12.1754043 101.444579,12.4718298 L101.444579,18.2246809 C101.972818,18.1652128 102.501963,18.1066596 102.913319,18.1066596 C104.498943,18.1066596 105.100574,19.0554043 105.100574,21.6061277 L105.100574,42.2269149 L112.090003,42.2269149 L112.090003,25.0269149 C112.090003,20.9345957 114.8508,18.0865319 118.786771,18.0865319 C122.721836,18.0865319 125.013289,20.6372553 125.013289,24.7295745 L125.013289,34.6936809 C125.013289,39.9131489 127.30293,42.5233404 131.94473,42.5233404 C133.176986,42.5233404 134.176382,42.4044043 134.998188,42.1665319 L134.998188,36.1767234 C134.704621,36.2361915 134.352159,36.2956596 134.000604,36.2956596" id="Fill-4" fill="#6FBE9A"></path>
        <path d="M160.139837,42.243383 L160.139837,24.7460426 C160.139837,20.6537234 157.967079,18.103 154.206886,18.103 C150.38961,18.103 147.687708,20.9501489 147.687708,25.0424681 L147.687708,42.243383 L140.698278,42.243383 L140.698278,0.903914894 L147.687708,0.903914894 L147.687708,16.5019362 C149.038659,13.6547872 152.269707,11.7572979 156.321655,11.7572979 C163.136213,11.7572979 167.130172,16.3244468 167.130172,23.7387447 L167.130172,42.243383 L160.139837,42.243383" id="Fill-5" fill="#2B3B3D"></path>
        <path d="M292.012987,42.243383 L292.012987,24.7460426 C292.012987,20.6537234 289.84023,18.103 286.080942,18.103 C282.26276,18.103 279.560858,20.9501489 279.560858,25.0424681 L279.560858,42.243383 L272.570523,42.243383 L272.570523,0.903914894 L279.560858,0.903914894 L279.560858,16.5019362 C280.911809,13.6547872 284.142857,11.7572979 288.194805,11.7572979 C295.009363,11.7572979 299.003322,16.3244468 299.003322,23.7387447 L299.003322,42.243383 L292.012987,42.243383" id="Fill-6" fill="#2B3B3D"></path>
        <path d="M194.215343,24.0937234 C194.215343,22.3142553 193.452431,20.7726596 191.983691,19.5265745 C190.51495,18.2219362 188.811537,17.569617 186.755663,17.569617 C184.582905,17.569617 182.643914,18.2219362 181.058291,19.4680213 C179.472667,20.7131915 178.59106,22.2547872 178.414376,24.0937234 L194.215343,24.0937234 Z M171.249169,27.2958511 C171.249169,22.5521277 172.717004,18.756234 175.59559,15.8487021 C178.532166,12.943 182.233464,11.5203404 186.755663,11.5203404 C191.044095,11.5203404 194.567804,12.943 197.270613,15.8487021 C200.03141,18.756234 201.381456,22.3142553 201.381456,26.5849787 C201.381456,27.4742553 201.322561,28.3049787 201.264573,29.0753191 L178.238599,29.0753191 C178.474177,33.8199574 181.938991,36.9049787 187.166113,36.9049787 C190.221383,36.9049787 192.864391,35.7787447 195.155844,33.4640638 L199.385382,37.616766 C196.035639,41.1747872 191.92389,42.9542553 186.932347,42.9542553 C182.291453,42.9542553 178.474177,41.5315957 175.59559,38.7439149 C172.717004,35.956234 171.249169,32.2188936 171.249169,27.5337234 L171.249169,27.2958511 Z" id="Fill-8" fill="#2B3B3D"></path>
        <path d="M227.075808,33.8199574 C228.839021,32.1008723 229.718816,29.9060426 229.718816,27.2958511 C229.718816,24.6874894 228.839021,22.4926596 227.075808,20.7726596 C225.372395,19.0517447 223.198732,18.163383 220.673513,18.163383 C218.147387,18.163383 216.091513,19.0517447 214.3881,20.7726596 C212.743582,22.4926596 211.921776,24.6874894 211.921776,27.2958511 C211.921776,29.9060426 212.743582,32.1008723 214.3881,33.8199574 C216.091513,35.5408723 218.147387,36.4301489 220.673513,36.4301489 C223.198732,36.4301489 225.372395,35.5408723 227.075808,33.8199574 Z M229.8955,42.243383 L229.8955,38.2681702 C227.839625,41.4126596 224.4328,42.9542553 219.733917,42.9542553 C215.563274,42.9542553 212.038659,41.4712128 209.160979,38.4465745 C206.340381,35.4219362 204.931441,31.7440638 204.931441,27.2958511 C204.931441,22.8476383 206.340381,19.1706809 209.160979,16.2055106 C212.038659,13.1808723 215.563274,11.6978298 219.733917,11.6978298 C224.491694,11.6978298 228.074298,13.8322766 229.189671,16.6803404 L229.189671,12.3501489 L236.238901,12.3501489 L236.238901,42.243383 L229.8955,42.243383 Z" id="Fill-9" fill="#2B3B3D"></path>
        <polygon id="Fill-10" fill="#2B3B3D" points="241.026578 42.2442979 248.074902 42.2442979 248.074902 0.903914894 241.026578 0.903914894"></polygon>
        <path d="M255.383268,18.7836809 L251.689218,18.7836809 L251.689218,12.3300213 L255.383268,12.3300213 L255.383268,0.903914894 L262.419813,0.903914894 L262.419813,12.3300213 L268.929024,12.3300213 L268.929024,18.7836809 L262.419813,18.7836809 L262.419813,32.1054468 C262.419813,35.3624681 263.53428,36.5463404 266.113863,36.5463404 C266.993658,36.5463404 267.814558,36.4868723 268.576563,36.3102979 L268.576563,42.6450213 C267.578979,42.8810638 266.348535,43 264.941407,43 C258.549985,43 255.383268,39.6249574 255.383268,32.8757872 L255.383268,18.7836809" id="Fill-11" fill="#2B3B3D"></path>
    </g>
</svg>